<svg width="12" height="12" viewBox="0 0 12 12" fill="none" xmlns="http://www.w3.org/2000/svg">
<path d="M9.13664 1.52667L10.6633 0H5.32997V5.33333L6.8633 3.8C8.17664 4.77333 9.02997 6.32 9.02997 8.08C9.02997 8.95333 8.81664 9.77333 8.4433 10.5C9.99664 9.48667 11.03 7.74 11.03 5.74667C11.03 4.06667 10.29 2.56667 9.13664 1.52667Z" fill="#5243AA"/>
<path d="M2.96997 3.92C2.96997 3.04667 3.1833 2.22667 3.55664 1.5C1.99664 2.51333 0.969971 4.26 0.969971 6.25333C0.969971 7.93333 1.7033 9.43333 2.8633 10.4733L1.32997 12H6.6633V6.66667L5.12997 8.2C3.8233 7.22667 2.96997 5.68 2.96997 3.92Z" fill="#5243AA"/>
</svg>
