<svg width="250" height="232" viewBox="0 0 250 232" fill="none" xmlns="http://www.w3.org/2000/svg">
<g clip-path="url(#clip0_9068_22517)">
<path opacity="0.18" d="M40.6401 225.769C59.6176 234.275 82.5727 233.379 100.826 223.409C106.488 220.31 111.741 216.393 117.775 214.079C132.393 208.475 148.764 213.149 164.387 212.134C190.769 210.425 213.932 192.016 227.326 169.276C240.719 146.536 245.758 119.912 248.663 93.6967C251.915 64.3885 250.691 30.0087 227.348 11.9139C208.691 -2.55531 182.382 -1.11512 159.213 3.51928C136.045 8.15367 112.23 15.2762 89.2412 9.86846C80.9491 7.92391 72.9435 4.35986 64.4379 3.94517C49.2637 3.19425 35.2637 12.6816 25.5109 24.3152C8.78057 44.265 1.46596 70.7208 0.274948 96.7003C-0.916063 122.77 3.71315 148.979 4.40978 174.913C5.01652 197.637 19.7075 216.382 40.6401 225.78V225.769Z" fill="#68E1FD"/>
<path d="M176.004 44.3759H74.3132C66.0631 44.3759 59.375 51.0471 59.375 59.2765V172.884C59.375 181.113 66.0631 187.784 74.3132 187.784H176.004C184.254 187.784 190.942 181.113 190.942 172.884V59.2765C190.942 51.0471 184.254 44.3759 176.004 44.3759Z" fill="white"/>
<path d="M95.3502 162.616L114.036 145.575C114.036 145.575 139.788 163.916 164.401 147.587C189.013 131.257 189.828 99.2254 178.597 86.9362C167.367 74.6413 167.507 83.3889 167.507 83.3889C167.507 83.3889 185.024 131.672 146.991 136.519C108.957 141.366 105.272 130.568 105.272 130.568L82.1367 162.616H95.3558H95.3502Z" fill="url(#paint0_linear_9068_22517)"/>
<path d="M65.9249 164.92C63.4417 167.396 63.4417 171.409 65.9249 173.886C68.408 176.363 72.4305 176.363 74.9136 173.886L114.717 135.83C117.2 133.353 117.2 129.335 114.717 126.858C112.234 124.381 108.206 124.381 105.723 126.858L65.9192 164.914L65.9249 164.92Z" fill="#68E1FD"/>
<path d="M94.1719 103.798C94.1719 127.985 113.829 147.587 138.076 147.587C162.324 147.587 181.975 127.979 181.975 103.793C181.975 79.6064 162.318 60.004 138.076 60.004C113.829 60.004 94.1775 79.612 94.1775 103.793L94.1719 103.798ZM105.262 103.798C105.262 85.7258 119.958 71.0717 138.082 71.0773C156.2 71.0773 170.891 85.737 170.885 103.815C170.885 121.888 156.194 136.536 138.076 136.536C119.958 136.536 105.267 121.888 105.267 103.815V103.804L105.262 103.798Z" fill="#68E1FD"/>
<path d="M94.1719 103.798C94.1719 127.985 113.829 147.587 138.076 147.587C162.324 147.587 181.975 127.979 181.975 103.793C181.975 79.6064 162.318 60.004 138.076 60.004C113.829 60.004 94.1775 79.612 94.1775 103.793L94.1719 103.798ZM105.262 103.798C105.262 85.7258 119.958 71.0717 138.082 71.0773C156.2 71.0773 170.891 85.737 170.885 103.815C170.885 121.888 156.194 136.536 138.076 136.536C119.958 136.536 105.267 121.888 105.267 103.815V103.804L105.262 103.798Z" fill="url(#paint1_linear_9068_22517)"/>
<path d="M90.7949 100.621C90.7949 124.807 110.447 144.415 134.694 144.415C158.941 144.415 178.598 124.813 178.598 100.626C178.598 76.4401 158.947 56.8322 134.699 56.8322C110.452 56.8322 90.8005 76.4401 90.8005 100.621H90.7949ZM101.89 100.621C101.89 82.5483 116.576 67.8942 134.699 67.8886C152.817 67.8886 167.508 82.5371 167.514 100.615C167.514 118.688 152.829 133.342 134.705 133.347C116.587 133.347 101.896 118.693 101.896 100.621H101.89Z" fill="#68E1FD"/>
<path d="M123.861 107.805H116.637V117.841H123.861V107.805Z" fill="#68E1FD"/>
<path d="M132.772 97.3929H125.547V117.847H132.772V97.3929Z" fill="#68E1FD"/>
<path d="M141.682 105.395H134.457V117.847H141.682V105.395Z" fill="#68E1FD"/>
<path d="M150.592 90.9149H143.367V117.847H150.592V90.9149Z" fill="#68E1FD"/>
<path d="M132.772 97.3929H125.547V117.847H132.772V97.3929Z" fill="url(#paint2_linear_9068_22517)"/>
<path d="M150.592 90.9149H143.367V117.847H150.592V90.9149Z" fill="url(#paint3_linear_9068_22517)"/>
<path d="M159.502 83.3889H152.277V117.841H159.502V83.3889Z" fill="#68E1FD"/>
</g>
<defs>
<linearGradient id="paint0_linear_9068_22517" x1="96.8951" y1="60.0376" x2="211.301" y2="279.872" gradientUnits="userSpaceOnUse">
<stop stop-color="#231F20"/>
<stop offset="0.08" stop-color="#231F20" stop-opacity="0.69"/>
<stop offset="0.21" stop-color="#231F20" stop-opacity="0.32"/>
<stop offset="1" stop-color="#231F20" stop-opacity="0"/>
</linearGradient>
<linearGradient id="paint1_linear_9068_22517" x1="39.9696" y1="-10.1115" x2="472.176" y2="494.263" gradientUnits="userSpaceOnUse">
<stop stop-color="#231F20"/>
<stop offset="0.08" stop-color="#231F20" stop-opacity="0.69"/>
<stop offset="0.21" stop-color="#231F20" stop-opacity="0.32"/>
<stop offset="1" stop-color="#231F20" stop-opacity="0"/>
</linearGradient>
<linearGradient id="paint2_linear_9068_22517" x1="112.131" y1="75.4706" x2="188.409" y2="220.209" gradientUnits="userSpaceOnUse">
<stop stop-color="#231F20"/>
<stop offset="0.08" stop-color="#231F20" stop-opacity="0.69"/>
<stop offset="0.21" stop-color="#231F20" stop-opacity="0.32"/>
<stop offset="1" stop-color="#231F20" stop-opacity="0"/>
</linearGradient>
<linearGradient id="paint3_linear_9068_22517" x1="127.407" y1="67.4235" x2="203.679" y2="212.162" gradientUnits="userSpaceOnUse">
<stop stop-color="#231F20"/>
<stop offset="0.08" stop-color="#231F20" stop-opacity="0.69"/>
<stop offset="0.21" stop-color="#231F20" stop-opacity="0.32"/>
<stop offset="1" stop-color="#231F20" stop-opacity="0"/>
</linearGradient>
<clipPath id="clip0_9068_22517">
<rect width="250" height="232" fill="white"/>
</clipPath>
</defs>
</svg>
